<svg width="78" height="24" viewBox="0 0 78 24" fill="none" xmlns="http://www.w3.org/2000/svg">
<g clip-path="url(#clip0_572_2779)">
<rect y="1" width="22" height="22" fill="white"/>
<path fill-rule="evenodd" clip-rule="evenodd" d="M10.7281 5.125H10.728H9.74596L6.79943 5.125V5.12501H6.79893V17.8928H6.79883L6.79883 18.8749L6.79893 18.8749H8.7632L15.638 18.8749V17.8928H10.7281V5.125ZM9.74596 17.8928V6.10714L8.7632 6.10714V17.8928H9.74596Z" fill="#424242"/>
</g>
<path d="M31.024 16.528H34.784V18H29.2V6.88H31.024V16.528ZM44.3894 13.376C44.3894 13.7067 44.368 14.0053 44.3254 14.272H37.5894C37.6427 14.976 37.904 15.5413 38.3734 15.968C38.8427 16.3947 39.4187 16.608 40.1014 16.608C41.0827 16.608 41.776 16.1973 42.1814 15.376H44.1494C43.8827 16.1867 43.3974 16.8533 42.6934 17.376C42 17.888 41.136 18.144 40.1014 18.144C39.2587 18.144 38.5014 17.9573 37.8294 17.584C37.168 17.2 36.6454 16.6667 36.2614 15.984C35.888 15.2907 35.7014 14.4907 35.7014 13.584C35.7014 12.6773 35.8827 11.8827 36.2454 11.2C36.6187 10.5067 37.136 9.97333 37.7974 9.6C38.4694 9.22667 39.2374 9.04 40.1014 9.04C40.9334 9.04 41.6747 9.22133 42.3254 9.584C42.976 9.94667 43.4827 10.4587 43.8454 11.12C44.208 11.7707 44.3894 12.5227 44.3894 13.376ZM42.4854 12.8C42.4747 12.128 42.2347 11.5893 41.7654 11.184C41.296 10.7787 40.7147 10.576 40.0214 10.576C39.392 10.576 38.8534 10.7787 38.4054 11.184C37.9574 11.5787 37.6907 12.1173 37.6054 12.8H42.4854ZM49.9604 13.536L52.8084 18H50.7444L48.8404 15.008L47.0484 18H45.1444L47.9924 13.664L45.1444 9.184H47.2084L49.1124 12.176L50.9044 9.184H52.8084L49.9604 13.536ZM55.0968 8.016C54.7661 8.016 54.4888 7.904 54.2648 7.68C54.0408 7.456 53.9288 7.17867 53.9288 6.848C53.9288 6.51733 54.0408 6.24 54.2648 6.016C54.4888 5.792 54.7661 5.68 55.0968 5.68C55.4168 5.68 55.6888 5.792 55.9128 6.016C56.1368 6.24 56.2488 6.51733 56.2488 6.848C56.2488 7.17867 56.1368 7.456 55.9128 7.68C55.6888 7.904 55.4168 8.016 55.0968 8.016ZM55.9928 9.184V18H54.1688V9.184H55.9928ZM57.7795 13.584C57.7795 12.6773 57.9608 11.8827 58.3235 11.2C58.6968 10.5067 59.2088 9.97333 59.8595 9.6C60.5102 9.22667 61.2568 9.04 62.0995 9.04C63.1662 9.04 64.0462 9.296 64.7395 9.808C65.4435 10.3093 65.9182 11.0293 66.1635 11.968H64.1955C64.0355 11.5307 63.7795 11.1893 63.4275 10.944C63.0755 10.6987 62.6328 10.576 62.0995 10.576C61.3528 10.576 60.7555 10.8427 60.3075 11.376C59.8702 11.8987 59.6515 12.6347 59.6515 13.584C59.6515 14.5333 59.8702 15.2747 60.3075 15.808C60.7555 16.3413 61.3528 16.608 62.0995 16.608C63.1555 16.608 63.8542 16.144 64.1955 15.216H66.1635C65.9075 16.112 65.4275 16.8267 64.7235 17.36C64.0195 17.8827 63.1448 18.144 62.0995 18.144C61.2568 18.144 60.5102 17.9573 59.8595 17.584C59.2088 17.2 58.6968 16.6667 58.3235 15.984C57.9608 15.2907 57.7795 14.4907 57.7795 13.584ZM67.3733 13.552C67.3733 12.6667 67.5546 11.8827 67.9173 11.2C68.2906 10.5173 68.7919 9.98933 69.4213 9.616C70.0613 9.232 70.7653 9.04 71.5333 9.04C72.2266 9.04 72.8293 9.17867 73.3413 9.456C73.8639 9.72267 74.2799 10.0587 74.5893 10.464V9.184H76.4293V18H74.5893V16.688C74.2799 17.104 73.8586 17.4507 73.3253 17.728C72.7919 18.0053 72.1839 18.144 71.5013 18.144C70.7439 18.144 70.0506 17.952 69.4213 17.568C68.7919 17.1733 68.2906 16.6293 67.9173 15.936C67.5546 15.232 67.3733 14.4373 67.3733 13.552ZM74.5893 13.584C74.5893 12.976 74.4613 12.448 74.2053 12C73.9599 11.552 73.6346 11.2107 73.2293 10.976C72.8239 10.7413 72.3866 10.624 71.9173 10.624C71.4479 10.624 71.0106 10.7413 70.6053 10.976C70.1999 11.2 69.8693 11.536 69.6133 11.984C69.3679 12.4213 69.2453 12.944 69.2453 13.552C69.2453 14.16 69.3679 14.6933 69.6133 15.152C69.8693 15.6107 70.1999 15.9627 70.6053 16.208C71.0213 16.4427 71.4586 16.56 71.9173 16.56C72.3866 16.56 72.8239 16.4427 73.2293 16.208C73.6346 15.9733 73.9599 15.632 74.2053 15.184C74.4613 14.7253 74.5893 14.192 74.5893 13.584Z" fill="white"/>
<defs>
<clipPath id="clip0_572_2779">
<rect y="1" width="22" height="22" rx="11" fill="white"/>
</clipPath>
</defs>
</svg>
