<svg width="175" height="44" viewBox="0 0 175 44" fill="none" xmlns="http://www.w3.org/2000/svg">
<rect width="44" height="44" rx="7.33333" fill="#0C0534"/>
<path d="M27.335 17.59C26.917 16.82 26.312 16.237 25.52 15.841C24.75 15.423 23.837 15.214 22.781 15.214C20.955 15.214 19.492 15.819 18.392 17.029C17.292 18.217 16.742 19.812 16.742 21.814C16.742 23.948 17.314 25.62 18.458 26.83C19.624 28.018 21.219 28.612 23.243 28.612C24.629 28.612 25.795 28.26 26.741 27.556C27.709 26.852 28.413 25.84 28.853 24.52H21.692V20.362H33.968V25.609C33.55 27.017 32.835 28.326 31.823 29.536C30.833 30.746 29.568 31.725 28.028 32.473C26.488 33.221 24.75 33.595 22.814 33.595C20.526 33.595 18.48 33.1 16.676 32.11C14.894 31.098 13.497 29.701 12.485 27.919C11.495 26.137 11 24.102 11 21.814C11 19.526 11.495 17.491 12.485 15.709C13.497 13.905 14.894 12.508 16.676 11.518C18.458 10.506 20.493 10 22.781 10C25.553 10 27.885 10.671 29.777 12.013C31.691 13.355 32.956 15.214 33.572 17.59H27.335Z" fill="white"/>
<path d="M69.32 18.288C68.936 17.584 68.408 17.048 67.736 16.68C67.064 16.312 66.28 16.128 65.384 16.128C64.392 16.128 63.512 16.352 62.744 16.8C61.976 17.248 61.376 17.888 60.944 18.72C60.512 19.552 60.296 20.512 60.296 21.6C60.296 22.72 60.512 23.696 60.944 24.528C61.392 25.36 62.008 26 62.792 26.448C63.576 26.896 64.488 27.12 65.528 27.12C66.808 27.12 67.856 26.784 68.672 26.112C69.488 25.424 70.024 24.472 70.28 23.256H64.52V20.688H73.592V23.616C73.368 24.784 72.888 25.864 72.152 26.856C71.416 27.848 70.464 28.648 69.296 29.256C68.144 29.848 66.848 30.144 65.408 30.144C63.792 30.144 62.328 29.784 61.016 29.064C59.72 28.328 58.696 27.312 57.944 26.016C57.208 24.72 56.84 23.248 56.84 21.6C56.84 19.952 57.208 18.48 57.944 17.184C58.696 15.872 59.72 14.856 61.016 14.136C62.328 13.4 63.784 13.032 65.384 13.032C67.272 13.032 68.912 13.496 70.304 14.424C71.696 15.336 72.656 16.624 73.184 18.288H69.32ZM75.2139 23.304C75.2139 21.96 75.4779 20.768 76.0059 19.728C76.5499 18.688 77.2779 17.888 78.1899 17.328C79.1179 16.768 80.1499 16.488 81.2859 16.488C82.2779 16.488 83.1419 16.688 83.8779 17.088C84.6299 17.488 85.2299 17.992 85.6779 18.6V16.704H89.0619V30H85.6779V28.056C85.2459 28.68 84.6459 29.2 83.8779 29.616C83.1259 30.016 82.2539 30.216 81.2619 30.216C80.1419 30.216 79.1179 29.928 78.1899 29.352C77.2779 28.776 76.5499 27.968 76.0059 26.928C75.4779 25.872 75.2139 24.664 75.2139 23.304ZM85.6779 23.352C85.6779 22.536 85.5179 21.84 85.1979 21.264C84.8779 20.672 84.4459 20.224 83.9019 19.92C83.3579 19.6 82.7739 19.44 82.1499 19.44C81.5259 19.44 80.9499 19.592 80.4219 19.896C79.8939 20.2 79.4619 20.648 79.1259 21.24C78.8059 21.816 78.6459 22.504 78.6459 23.304C78.6459 24.104 78.8059 24.808 79.1259 25.416C79.4619 26.008 79.8939 26.464 80.4219 26.784C80.9659 27.104 81.5419 27.264 82.1499 27.264C82.7739 27.264 83.3579 27.112 83.9019 26.808C84.4459 26.488 84.8779 26.04 85.1979 25.464C85.5179 24.872 85.6779 24.168 85.6779 23.352ZM95.7035 12.24V30H92.3435V12.24H95.7035ZM111.383 23.064C111.383 23.544 111.351 23.976 111.287 24.36H101.567C101.647 25.32 101.983 26.072 102.575 26.616C103.167 27.16 103.895 27.432 104.759 27.432C106.007 27.432 106.895 26.896 107.423 25.824H111.047C110.663 27.104 109.927 28.16 108.839 28.992C107.751 29.808 106.415 30.216 104.831 30.216C103.551 30.216 102.399 29.936 101.375 29.376C100.367 28.8 99.5752 27.992 98.9992 26.952C98.4392 25.912 98.1592 24.712 98.1592 23.352C98.1592 21.976 98.4392 20.768 98.9992 19.728C99.5592 18.688 100.343 17.888 101.351 17.328C102.359 16.768 103.519 16.488 104.831 16.488C106.095 16.488 107.223 16.76 108.215 17.304C109.223 17.848 109.999 18.624 110.543 19.632C111.103 20.624 111.383 21.768 111.383 23.064ZM107.903 22.104C107.887 21.24 107.575 20.552 106.967 20.04C106.359 19.512 105.615 19.248 104.735 19.248C103.903 19.248 103.199 19.504 102.623 20.016C102.063 20.512 101.719 21.208 101.591 22.104H107.903ZM117.196 18.768C117.628 18.064 118.188 17.512 118.876 17.112C119.58 16.712 120.38 16.512 121.276 16.512V20.04H120.388C119.332 20.04 118.532 20.288 117.988 20.784C117.46 21.28 117.196 22.144 117.196 23.376V30H113.836V16.704H117.196V18.768ZM125.243 15.12C124.651 15.12 124.155 14.936 123.755 14.568C123.371 14.184 123.179 13.712 123.179 13.152C123.179 12.592 123.371 12.128 123.755 11.76C124.155 11.376 124.651 11.184 125.243 11.184C125.835 11.184 126.323 11.376 126.707 11.76C127.107 12.128 127.307 12.592 127.307 13.152C127.307 13.712 127.107 14.184 126.707 14.568C126.323 14.936 125.835 15.12 125.243 15.12ZM126.899 16.704V30H123.539V16.704H126.899ZM129.354 23.304C129.354 21.96 129.618 20.768 130.146 19.728C130.691 18.688 131.419 17.888 132.331 17.328C133.259 16.768 134.291 16.488 135.427 16.488C136.419 16.488 137.283 16.688 138.019 17.088C138.771 17.488 139.371 17.992 139.819 18.6V16.704H143.203V30H139.819V28.056C139.387 28.68 138.787 29.2 138.019 29.616C137.267 30.016 136.395 30.216 135.403 30.216C134.283 30.216 133.259 29.928 132.331 29.352C131.419 28.776 130.691 27.968 130.146 26.928C129.618 25.872 129.354 24.664 129.354 23.304ZM139.819 23.352C139.819 22.536 139.659 21.84 139.339 21.264C139.019 20.672 138.587 20.224 138.043 19.92C137.499 19.6 136.915 19.44 136.291 19.44C135.667 19.44 135.091 19.592 134.562 19.896C134.035 20.2 133.603 20.648 133.267 21.24C132.947 21.816 132.787 22.504 132.787 23.304C132.787 24.104 132.947 24.808 133.267 25.416C133.603 26.008 134.035 26.464 134.562 26.784C135.107 27.104 135.683 27.264 136.291 27.264C136.915 27.264 137.499 27.112 138.043 26.808C138.587 26.488 139.019 26.04 139.339 25.464C139.659 24.872 139.819 24.168 139.819 23.352ZM147.972 30.168C147.364 30.168 146.86 29.984 146.46 29.616C146.076 29.232 145.884 28.76 145.884 28.2C145.884 27.64 146.076 27.176 146.46 26.808C146.86 26.424 147.364 26.232 147.972 26.232C148.564 26.232 149.052 26.424 149.436 26.808C149.82 27.176 150.012 27.64 150.012 28.2C150.012 28.76 149.82 29.232 149.436 29.616C149.052 29.984 148.564 30.168 147.972 30.168ZM151.854 23.304C151.854 21.96 152.118 20.768 152.646 19.728C153.191 18.688 153.919 17.888 154.831 17.328C155.759 16.768 156.791 16.488 157.927 16.488C158.919 16.488 159.783 16.688 160.519 17.088C161.271 17.488 161.871 17.992 162.319 18.6V16.704H165.703V30H162.319V28.056C161.887 28.68 161.287 29.2 160.519 29.616C159.767 30.016 158.895 30.216 157.903 30.216C156.783 30.216 155.759 29.928 154.831 29.352C153.919 28.776 153.191 27.968 152.646 26.928C152.118 25.872 151.854 24.664 151.854 23.304ZM162.319 23.352C162.319 22.536 162.159 21.84 161.839 21.264C161.519 20.672 161.087 20.224 160.543 19.92C159.999 19.6 159.415 19.44 158.791 19.44C158.167 19.44 157.591 19.592 157.062 19.896C156.535 20.2 156.103 20.648 155.767 21.24C155.447 21.816 155.287 22.504 155.287 23.304C155.287 24.104 155.447 24.808 155.767 25.416C156.103 26.008 156.535 26.464 157.062 26.784C157.607 27.104 158.183 27.264 158.791 27.264C159.415 27.264 159.999 27.112 160.543 26.808C161.087 26.488 161.519 26.04 161.839 25.464C162.159 24.872 162.319 24.168 162.319 23.352ZM170.688 15.12C170.096 15.12 169.6 14.936 169.2 14.568C168.816 14.184 168.624 13.712 168.624 13.152C168.624 12.592 168.816 12.128 169.2 11.76C169.6 11.376 170.096 11.184 170.688 11.184C171.28 11.184 171.768 11.376 172.152 11.76C172.552 12.128 172.752 12.592 172.752 13.152C172.752 13.712 172.552 14.184 172.152 14.568C171.768 14.936 171.28 15.12 170.688 15.12ZM172.344 16.704V30H168.984V16.704H172.344Z" fill="#0C0534"/>
</svg>
