<svg width="173" height="44" viewBox="0 0 173 44" fill="none" xmlns="http://www.w3.org/2000/svg">
<rect width="44" height="44" rx="7.33333" fill="#0C0534"/>
<path d="M27.335 17.59C26.917 16.82 26.312 16.237 25.52 15.841C24.75 15.423 23.837 15.214 22.781 15.214C20.955 15.214 19.492 15.819 18.392 17.029C17.292 18.217 16.742 19.812 16.742 21.814C16.742 23.948 17.314 25.62 18.458 26.83C19.624 28.018 21.219 28.612 23.243 28.612C24.629 28.612 25.795 28.26 26.741 27.556C27.709 26.852 28.413 25.84 28.853 24.52H21.692V20.362H33.968V25.609C33.55 27.017 32.835 28.326 31.823 29.536C30.833 30.746 29.568 31.725 28.028 32.473C26.488 33.221 24.75 33.595 22.814 33.595C20.526 33.595 18.48 33.1 16.676 32.11C14.894 31.098 13.497 29.701 12.485 27.919C11.495 26.137 11 24.102 11 21.814C11 19.526 11.495 17.491 12.485 15.709C13.497 13.905 14.894 12.508 16.676 11.518C18.458 10.506 20.493 10 22.781 10C25.553 10 27.885 10.671 29.777 12.013C31.691 13.355 32.956 15.214 33.572 17.59H27.335Z" fill="white"/>
<path d="M69.32 18.288C68.936 17.584 68.408 17.048 67.736 16.68C67.064 16.312 66.28 16.128 65.384 16.128C64.392 16.128 63.512 16.352 62.744 16.8C61.976 17.248 61.376 17.888 60.944 18.72C60.512 19.552 60.296 20.512 60.296 21.6C60.296 22.72 60.512 23.696 60.944 24.528C61.392 25.36 62.008 26 62.792 26.448C63.576 26.896 64.488 27.12 65.528 27.12C66.808 27.12 67.856 26.784 68.672 26.112C69.488 25.424 70.024 24.472 70.28 23.256H64.52V20.688H73.592V23.616C73.368 24.784 72.888 25.864 72.152 26.856C71.416 27.848 70.464 28.648 69.296 29.256C68.144 29.848 66.848 30.144 65.408 30.144C63.792 30.144 62.328 29.784 61.016 29.064C59.72 28.328 58.696 27.312 57.944 26.016C57.208 24.72 56.84 23.248 56.84 21.6C56.84 19.952 57.208 18.48 57.944 17.184C58.696 15.872 59.72 14.856 61.016 14.136C62.328 13.4 63.784 13.032 65.384 13.032C67.272 13.032 68.912 13.496 70.304 14.424C71.696 15.336 72.656 16.624 73.184 18.288H69.32ZM75.2139 23.304C75.2139 21.96 75.4779 20.768 76.0059 19.728C76.5499 18.688 77.2779 17.888 78.1899 17.328C79.1179 16.768 80.1499 16.488 81.2859 16.488C82.2779 16.488 83.1419 16.688 83.8779 17.088C84.6299 17.488 85.2299 17.992 85.6779 18.6V16.704H89.0619V30H85.6779V28.056C85.2459 28.68 84.6459 29.2 83.8779 29.616C83.1259 30.016 82.2539 30.216 81.2619 30.216C80.1419 30.216 79.1179 29.928 78.1899 29.352C77.2779 28.776 76.5499 27.968 76.0059 26.928C75.4779 25.872 75.2139 24.664 75.2139 23.304ZM85.6779 23.352C85.6779 22.536 85.5179 21.84 85.1979 21.264C84.8779 20.672 84.4459 20.224 83.9019 19.92C83.3579 19.6 82.7739 19.44 82.1499 19.44C81.5259 19.44 80.9499 19.592 80.4219 19.896C79.8939 20.2 79.4619 20.648 79.1259 21.24C78.8059 21.816 78.6459 22.504 78.6459 23.304C78.6459 24.104 78.8059 24.808 79.1259 25.416C79.4619 26.008 79.8939 26.464 80.4219 26.784C80.9659 27.104 81.5419 27.264 82.1499 27.264C82.7739 27.264 83.3579 27.112 83.9019 26.808C84.4459 26.488 84.8779 26.04 85.1979 25.464C85.5179 24.872 85.6779 24.168 85.6779 23.352ZM95.7035 12.24V30H92.3435V12.24H95.7035ZM111.383 23.064C111.383 23.544 111.351 23.976 111.287 24.36H101.567C101.647 25.32 101.983 26.072 102.575 26.616C103.167 27.16 103.895 27.432 104.759 27.432C106.007 27.432 106.895 26.896 107.423 25.824H111.047C110.663 27.104 109.927 28.16 108.839 28.992C107.751 29.808 106.415 30.216 104.831 30.216C103.551 30.216 102.399 29.936 101.375 29.376C100.367 28.8 99.5752 27.992 98.9992 26.952C98.4392 25.912 98.1592 24.712 98.1592 23.352C98.1592 21.976 98.4392 20.768 98.9992 19.728C99.5592 18.688 100.343 17.888 101.351 17.328C102.359 16.768 103.519 16.488 104.831 16.488C106.095 16.488 107.223 16.76 108.215 17.304C109.223 17.848 109.999 18.624 110.543 19.632C111.103 20.624 111.383 21.768 111.383 23.064ZM107.903 22.104C107.887 21.24 107.575 20.552 106.967 20.04C106.359 19.512 105.615 19.248 104.735 19.248C103.903 19.248 103.199 19.504 102.623 20.016C102.063 20.512 101.719 21.208 101.591 22.104H107.903ZM117.196 18.768C117.628 18.064 118.188 17.512 118.876 17.112C119.58 16.712 120.38 16.512 121.276 16.512V20.04H120.388C119.332 20.04 118.532 20.288 117.988 20.784C117.46 21.28 117.196 22.144 117.196 23.376V30H113.836V16.704H117.196V18.768ZM125.243 15.12C124.651 15.12 124.155 14.936 123.755 14.568C123.371 14.184 123.179 13.712 123.179 13.152C123.179 12.592 123.371 12.128 123.755 11.76C124.155 11.376 124.651 11.184 125.243 11.184C125.835 11.184 126.323 11.376 126.707 11.76C127.107 12.128 127.307 12.592 127.307 13.152C127.307 13.712 127.107 14.184 126.707 14.568C126.323 14.936 125.835 15.12 125.243 15.12ZM126.899 16.704V30H123.539V16.704H126.899ZM142.579 23.064C142.579 23.544 142.547 23.976 142.483 24.36H132.763C132.843 25.32 133.179 26.072 133.771 26.616C134.363 27.16 135.091 27.432 135.955 27.432C137.203 27.432 138.091 26.896 138.619 25.824H142.243C141.859 27.104 141.123 28.16 140.035 28.992C138.947 29.808 137.611 30.216 136.027 30.216C134.747 30.216 133.595 29.936 132.571 29.376C131.563 28.8 130.771 27.992 130.195 26.952C129.635 25.912 129.354 24.712 129.354 23.352C129.354 21.976 129.635 20.768 130.195 19.728C130.755 18.688 131.539 17.888 132.547 17.328C133.555 16.768 134.715 16.488 136.027 16.488C137.291 16.488 138.419 16.76 139.411 17.304C140.419 17.848 141.195 18.624 141.739 19.632C142.299 20.624 142.579 21.768 142.579 23.064ZM139.099 22.104C139.083 21.24 138.771 20.552 138.163 20.04C137.555 19.512 136.811 19.248 135.931 19.248C135.099 19.248 134.395 19.504 133.819 20.016C133.259 20.512 132.915 21.208 132.787 22.104H139.099ZM146.519 30.168C145.911 30.168 145.407 29.984 145.007 29.616C144.623 29.232 144.431 28.76 144.431 28.2C144.431 27.64 144.623 27.176 145.007 26.808C145.407 26.424 145.911 26.232 146.519 26.232C147.111 26.232 147.599 26.424 147.983 26.808C148.367 27.176 148.559 27.64 148.559 28.2C148.559 28.76 148.367 29.232 147.983 29.616C147.599 29.984 147.111 30.168 146.519 30.168ZM150.401 23.304C150.401 21.96 150.665 20.768 151.193 19.728C151.737 18.688 152.465 17.888 153.377 17.328C154.305 16.768 155.337 16.488 156.473 16.488C157.465 16.488 158.329 16.688 159.065 17.088C159.817 17.488 160.417 17.992 160.865 18.6V16.704H164.249V30H160.865V28.056C160.433 28.68 159.833 29.2 159.065 29.616C158.313 30.016 157.441 30.216 156.449 30.216C155.329 30.216 154.305 29.928 153.377 29.352C152.465 28.776 151.737 27.968 151.193 26.928C150.665 25.872 150.401 24.664 150.401 23.304ZM160.865 23.352C160.865 22.536 160.705 21.84 160.385 21.264C160.065 20.672 159.633 20.224 159.089 19.92C158.545 19.6 157.961 19.44 157.337 19.44C156.713 19.44 156.137 19.592 155.609 19.896C155.081 20.2 154.649 20.648 154.313 21.24C153.993 21.816 153.833 22.504 153.833 23.304C153.833 24.104 153.993 24.808 154.313 25.416C154.649 26.008 155.081 26.464 155.609 26.784C156.153 27.104 156.729 27.264 157.337 27.264C157.961 27.264 158.545 27.112 159.089 26.808C159.633 26.488 160.065 26.04 160.385 25.464C160.705 24.872 160.865 24.168 160.865 23.352ZM169.235 15.12C168.643 15.12 168.147 14.936 167.747 14.568C167.363 14.184 167.171 13.712 167.171 13.152C167.171 12.592 167.363 12.128 167.747 11.76C168.147 11.376 168.643 11.184 169.235 11.184C169.827 11.184 170.315 11.376 170.699 11.76C171.099 12.128 171.299 12.592 171.299 13.152C171.299 13.712 171.099 14.184 170.699 14.568C170.315 14.936 169.827 15.12 169.235 15.12ZM170.891 16.704V30H167.531V16.704H170.891Z" fill="#0C0534"/>
</svg>
