<svg width="44" height="44" viewBox="0 0 44 44" fill="none" xmlns="http://www.w3.org/2000/svg">
<rect width="44" height="44" rx="7.33333" fill="white"/>
<path d="M27.335 17.5899C26.917 16.8199 26.312 16.2369 25.52 15.8409C24.75 15.4229 23.837 15.2139 22.781 15.2139C20.955 15.2139 19.492 15.8189 18.392 17.0289C17.292 18.2169 16.742 19.8119 16.742 21.8139C16.742 23.9479 17.314 25.6199 18.458 26.8299C19.624 28.0179 21.219 28.6119 23.243 28.6119C24.629 28.6119 25.795 28.2599 26.741 27.5559C27.709 26.8519 28.413 25.8399 28.853 24.5199H21.692V20.3619H33.968V25.6089C33.55 27.0169 32.835 28.3259 31.823 29.5359C30.833 30.7459 29.568 31.7249 28.028 32.4729C26.488 33.2209 24.75 33.5949 22.814 33.5949C20.526 33.5949 18.48 33.0999 16.676 32.1099C14.894 31.0979 13.497 29.7009 12.485 27.9189C11.495 26.1369 11 24.1019 11 21.8139C11 19.5259 11.495 17.4909 12.485 15.7089C13.497 13.9049 14.894 12.5079 16.676 11.5179C18.458 10.5059 20.493 9.99994 22.781 9.99994C25.553 9.99994 27.885 10.6709 29.777 12.0129C31.691 13.3549 32.956 15.2139 33.572 17.5899H27.335Z" fill="#0C0534"/>
</svg>
